<svg id="레이어_1" data-name="레이어 1" xmlns="http://www.w3.org/2000/svg" viewBox="0 0 112 48">
    <defs>
        <style>.cls-1,.cls-2{fill:#fff;}.cls-2{font-size:30.95px;font-family:NanumSquareB,
            NanumSquare;font-weight:700;}
        </style>
    </defs>
    <title>16</title>
    <path class="cls-1"
          d="M88.74,4A19.28,19.28,0,0,1,108,23.26v1.48A19.28,19.28,0,0,1,88.74,44H23.26A19.28,19.28,0,0,1,4,24.74V23.26A19.28,19.28,0,0,1,23.26,4H88.74m0-4H23.26A23.33,23.33,0,0,0,0,23.26v1.48A23.33,23.33,0,0,0,23.26,48H88.74A23.33,23.33,0,0,0,112,24.74V23.26A23.33,23.33,0,0,0,88.74,0Z"/>
    <text class="cls-2" transform="translate(28.2 32.75) scale(0.96 1)">오늘</text>
</svg>