<svg id="레이어_1" data-name="레이어 1" xmlns="http://www.w3.org/2000/svg" viewBox="0 0 48 48">
    <defs>
        <style>.cls-1{fill:#fff;}</style>
    </defs>
    <title>18</title>
    <path class="cls-1"
          d="M47.12,21.86a3,3,0,0,0-4.24,0L24,40.26,5.12,21.86a3,3,0,0,0-4.24,0A2.87,2.87,0,0,0,.88,26L21.55,46.14a3,3,0,0,0,2.12.86L24,47l.33,0a3,3,0,0,0,2.12-.86L47.12,26A2.87,2.87,0,0,0,47.12,21.86Z"/>
    <path class="cls-1"
          d="M47.12,1.86a3,3,0,0,0-4.24,0L24,20.26,5.12,1.86a3,3,0,0,0-4.24,0A2.87,2.87,0,0,0,.88,6L21.55,26.14a3,3,0,0,0,2.12.86c.11,0,.22,0,.33,0s.22,0,.33,0a3,3,0,0,0,2.12-.86L47.12,6A2.87,2.87,0,0,0,47.12,1.86Z"/>
</svg>