<svg id="레이어_1" data-name="레이어 1" xmlns="http://www.w3.org/2000/svg" viewBox="0 0 48 48">
    <defs>
        <style>.cls-1{fill:#fff;}</style>
    </defs>
    <title>HYMN PROJECT 4</title>
    <path class="cls-1"
          d="M44.57,6H3.43A3.24,3.24,0,0,1,0,3,3.24,3.24,0,0,1,3.43,0H44.57A3.24,3.24,0,0,1,48,3,3.24,3.24,0,0,1,44.57,6Z"/>
    <path class="cls-1"
          d="M44.57,46H3.43A3.24,3.24,0,0,1,0,43a3.24,3.24,0,0,1,3.43-3H44.57A3.24,3.24,0,0,1,48,43,3.24,3.24,0,0,1,44.57,46Z"/>
    <path class="cls-1"
          d="M44.57,26H3.43A3.24,3.24,0,0,1,0,23a3.24,3.24,0,0,1,3.43-3H44.57A3.24,3.24,0,0,1,48,23,3.24,3.24,0,0,1,44.57,26Z"/>
</svg>