<svg xmlns="http://www.w3.org/2000/svg" xmlns:xlink="http://www.w3.org/1999/xlink" width="26" height="48" viewBox="0 0 26 48">
  <defs>
    <clipPath id="clip-대지_45">
      <rect width="26" height="48"/>
    </clipPath>
  </defs>
  <g id="대지_45" data-name="대지 45" clip-path="url(#clip-대지_45)">
    <rect width="26" height="48" fill="#fff"/>
    <path id="패스_35" data-name="패스 35" d="M138.143,386.476a3.053,3.053,0,0,0,0-4.242l-18.407-18.879,18.407-18.879a3.053,3.053,0,0,0,0-4.242,2.872,2.872,0,0,0-4.136,0L113.857,360.9a3.033,3.033,0,0,0-.857,2.122,1.809,1.809,0,0,1,0,.667,3.032,3.032,0,0,0,.857,2.121l20.15,20.666A2.872,2.872,0,0,0,138.143,386.476Z" transform="translate(-113 -339.355)"/>
  </g>
</svg>
